<?xml version="1.0" encoding="UTF-8" standalone="no"?>
<svg
   version="1.1"
   width="549"
   height="220"
   id="svg21"
   sodipodi:docname="large-logo.svg"
   inkscape:version="1.4.2 (f4327f4, 2025-05-13)"
   xmlns:inkscape="http://www.inkscape.org/namespaces/inkscape"
   xmlns:sodipodi="http://sodipodi.sourceforge.net/DTD/sodipodi-0.dtd"
   xmlns="http://www.w3.org/2000/svg"
   xmlns:svg="http://www.w3.org/2000/svg">
  <defs
     id="defs21" />
  <sodipodi:namedview
     id="namedview21"
     pagecolor="#ffffff"
     bordercolor="#000000"
     borderopacity="0.25"
     inkscape:showpageshadow="2"
     inkscape:pageopacity="0.0"
     inkscape:pagecheckerboard="0"
     inkscape:deskcolor="#d1d1d1"
     inkscape:zoom="0.80737705"
     inkscape:cx="58.832487"
     inkscape:cy="-76.172589"
     inkscape:window-width="1920"
     inkscape:window-height="991"
     inkscape:window-x="-9"
     inkscape:window-y="-9"
     inkscape:window-maximized="1"
     inkscape:current-layer="svg21" />
  <path
     d="M0 0 C10.20666058 7.49112703 16.2105868 15.85925166 19.1875 28.25 C19.49622523 31.00637792 19.56880144 33.72768034 19.5625 36.5 C19.56088867 37.24435303 19.55927734 37.98870605 19.55761719 38.75561523 C19.38424247 46.60931987 17.06487444 52.74856774 13.37451172 59.63134766 C10.63021738 65.1269728 8.82187635 70.90666878 6.9296875 76.73828125 C6.54056183 77.91843307 6.15143616 79.0985849 5.7505188 80.3144989 C4.72457778 83.4272413 3.7033922 86.54148164 2.68530273 89.65679932 C1.24602842 94.0608038 -0.19698707 98.4635576 -1.64694214 102.86405945 C-2.41713722 105.20195777 -3.18300892 107.54128572 -3.94412231 109.88215637 C-4.29143402 110.93722885 -4.63874573 111.99230133 -4.99658203 113.0793457 C-5.45147507 114.47211479 -5.45147507 114.47211479 -5.91555786 115.89302063 C-6.8125 118.25 -6.8125 118.25 -8.8125 121.25 C-11.79345703 121.59057617 -11.79345703 121.59057617 -15.5703125 121.54296875 C-16.23336395 121.53872391 -16.89641541 121.53447906 -17.57955933 121.53010559 C-19.69928441 121.51329971 -21.81806188 121.47564701 -23.9375 121.4375 C-25.37368419 121.42245549 -26.80988328 121.40876668 -28.24609375 121.39648438 C-31.76853764 121.3633909 -35.29042636 121.3115968 -38.8125 121.25 C-39.19994385 120.11272461 -39.5873877 118.97544922 -39.98657227 117.80371094 C-41.46002511 113.47937141 -42.93457941 109.15540807 -44.40942383 104.83154297 C-45.0408972 102.97975329 -45.67209352 101.12786912 -46.30297852 99.27587891 C-48.46449833 92.93105058 -50.63536595 86.58948643 -52.8125 80.25 C-53.13098907 79.32012268 -53.44947815 78.39024536 -53.77761841 77.43218994 C-54.71467652 74.70070015 -55.65730903 71.97119712 -56.6015625 69.2421875 C-57.02381859 68.00828278 -57.02381859 68.00828278 -57.4546051 66.74945068 C-58.91903579 62.53726556 -60.51307215 58.56764134 -62.625 54.625 C-68.00495944 44.57297052 -67.69069404 33.950764 -64.78515625 23.20703125 C-61.28100232 12.55384039 -54.41896812 4.01626302 -44.61328125 -1.4296875 C-29.55425249 -8.52864387 -14.4462034 -9.10036221 0 0 Z M-42.8125 19.25 C-43.534375 20.054375 -44.25625 20.85875 -45 21.6875 C-49.28689871 27.74828782 -49.4585558 34.0510925 -48.8125 41.25 C-47.35066775 48.30119087 -43.4660421 53.67102911 -37.62109375 57.796875 C-30.48217478 61.87625727 -23.48678737 62.49720075 -15.484375 60.73828125 C-7.68271548 58.16254252 -3.56767644 53.48215794 0.20703125 46.43359375 C3.1955777 39.77782696 3.05719403 32.94345848 0.625 26.125 C-2.6245499 18.85864536 -6.89988753 14.7307713 -14.3125 11.8125 C-24.67539915 8.56001399 -35.72442922 10.44360903 -42.8125 19.25 Z M-24 78.75 C-25.90845703 78.88921875 -25.90845703 78.88921875 -27.85546875 79.03125 C-29.31919922 79.13953125 -29.31919922 79.13953125 -30.8125 79.25 C-29.29776781 87.23676972 -26.64447448 94.65122878 -23.8125 102.25 C-22.8225 101.92 -21.8325 101.59 -20.8125 101.25 C-19.74268382 99.18463038 -19.74268382 99.18463038 -18.98828125 96.62890625 C-18.68212891 95.69369141 -18.37597656 94.75847656 -18.06054688 93.79492188 C-17.75181641 92.81072266 -17.44308594 91.82652344 -17.125 90.8125 C-16.80466797 89.83216797 -16.48433594 88.85183594 -16.15429688 87.84179688 C-14.47091792 83.13728381 -14.47091792 83.13728381 -13.8125 78.25 C-17.23025006 78.25 -20.59131173 78.49982104 -24 78.75 Z "
     fill="#FAFAFA"
     transform="translate(77.8125,22.75)"
     id="path1"
     style="fill:#ffffff;fill-opacity:1" />
  <path
     d="M0 0 C8.00718394 6.00113786 10.84882211 15.29060217 12.64453125 24.78515625 C14.74486 39.53940909 14.77098337 58.53553702 5.62109375 71.14453125 C-0.6929626 78.33180816 -6.53159961 82.2177279 -16.14453125 83.12890625 C-25.74029079 83.46412929 -34.51847316 82.29424631 -41.78515625 75.56640625 C-51.44117297 64.59680253 -52.83142776 48.94438243 -52.01611328 34.85888672 C-51.01053882 22.66666068 -48.69597253 11.0982374 -39.53515625 2.37890625 C-28.76965939 -6.31427637 -11.86270636 -7.59915439 0 0 Z M-22.47265625 15.00390625 C-27.83889038 22.07757851 -27.0297143 31.76727271 -27.03515625 40.19140625 C-27.04740234 41.18140625 -27.05964844 42.17140625 -27.07226562 43.19140625 C-27.10587767 53.8503982 -27.10587767 53.8503982 -23.03515625 63.44140625 C-20.91458262 65.01287029 -20.91458262 65.01287029 -18.28515625 65.00390625 C-15.50884067 63.94484848 -15.50884067 63.94484848 -14.09765625 60.56640625 C-11.63606385 53.18162905 -11.63073662 46.29894296 -11.59765625 38.56640625 C-11.57703125 37.37660156 -11.55640625 36.18679687 -11.53515625 34.9609375 C-11.50513994 28.16974758 -11.75455755 21.98468303 -14.84765625 15.81640625 C-15.50765625 15.15640625 -16.16765625 14.49640625 -16.84765625 13.81640625 C-20.64483805 13.42306186 -20.64483805 13.42306186 -22.47265625 15.00390625 Z "
     fill="#FBFBFB"
     transform="translate(376.84765625,62.18359375)"
     id="path2"
     style="fill:#ffffff;fill-opacity:1" />
  <path
     d="M0 0 C3.79674235 2.99328235 6.38363835 5.93547913 7.8828125 10.609375 C8.54287307 16.82881899 8.67666439 22.39282865 4.8828125 27.609375 C2.85891328 29.5276088 0.78845916 31.33445354 -1.375 33.09375 C-3.22624157 34.50974778 -3.22624157 34.50974778 -4.1171875 36.609375 C-3.3953125 36.83625 -2.6734375 37.063125 -1.9296875 37.296875 C3.03026632 39.61152012 6.57543869 43.64370273 9.15234375 48.4609375 C11.15625703 54.3548001 10.8675405 61.22031164 8.3828125 66.921875 C3.6426352 74.81123583 -2.85665368 78.61031806 -11.625 80.94921875 C-22.95960318 83.09188982 -35.00285981 82.34199414 -44.82421875 75.80859375 C-50.20804452 71.32932029 -53.58385874 67.1631821 -54.421875 60.0078125 C-54.71754132 53.69446695 -53.9926694 48.70531253 -50.1171875 43.609375 C-47.62721231 41.03082362 -45.06739982 38.6528121 -42.1171875 36.609375 C-41.4571875 36.609375 -40.7971875 36.609375 -40.1171875 36.609375 C-40.8596875 35.8875 -41.6021875 35.165625 -42.3671875 34.421875 C-48.14578218 28.51194863 -51.55744758 24.00547373 -52.1171875 15.609375 C-51.22901448 8.61501249 -48.49986041 4.18972497 -43.1171875 -0.390625 C-40.21736436 -2.08462943 -37.30608589 -3.34730704 -34.1171875 -4.390625 C-33.53453125 -4.58140625 -32.951875 -4.7721875 -32.3515625 -4.96875 C-21.40036873 -7.03645791 -9.42834168 -6.19278531 0 0 Z M-28.1171875 12.609375 C-29.73217771 15.83935543 -29.69694954 19.11747492 -29.1171875 22.609375 C-27.2407758 25.81950547 -27.2407758 25.81950547 -24.1171875 27.609375 C-20.29824209 27.67521889 -18.13746938 27.46509529 -15.1796875 24.984375 C-13.67428028 21.61934709 -13.66898785 19.25900068 -14.1171875 15.609375 C-15.95854679 12.47224436 -17.18246066 10.99285268 -20.5546875 9.609375 C-23.88375304 9.609375 -25.48261213 10.63344348 -28.1171875 12.609375 Z M-29.1171875 47.546875 C-31.44916763 51.11771957 -31.85986315 53.25443519 -31.59375 57.44921875 C-30.77589017 61.15640308 -29.25555063 62.58251548 -26.1171875 64.609375 C-23.27923237 65.30169873 -20.95211179 65.32526497 -18.1171875 64.609375 C-15.116935 62.37514442 -13.5655587 60.6742566 -12.1171875 57.234375 C-12.1171875 53.47050194 -13.37448181 50.90806792 -15.1171875 47.609375 C-20.02982813 44.33428125 -24.30391407 44.43830258 -29.1171875 47.546875 Z "
     fill="#FBFBFB"
     transform="translate(452.1171875,63.390625)"
     id="path3"
     style="fill:#ffffff;fill-opacity:1" />
  <path
     d="M0 0 C0.89396484 -0.01224609 1.78792969 -0.02449219 2.70898438 -0.03710938 C3.57716797 -0.03904297 4.44535156 -0.04097656 5.33984375 -0.04296875 C6.51921509 -0.04913208 6.51921509 -0.04913208 7.72241211 -0.05541992 C10.0625 0.1875 10.0625 0.1875 15.0625 2.1875 C15.0625 8.4575 15.0625 14.7275 15.0625 21.1875 C10.6075 20.1975 10.6075 20.1975 6.0625 19.1875 C0.09068757 18.5584582 -4.86581539 18.64911539 -9.9375 22.1875 C-14.45521814 26.60254272 -15.76742587 30.01801821 -16.9375 36.1875 C-16.12345703 35.66349609 -16.12345703 35.66349609 -15.29296875 35.12890625 C-14.57753906 34.67386719 -13.86210937 34.21882813 -13.125 33.75 C-12.41730469 33.29753906 -11.70960938 32.84507813 -10.98046875 32.37890625 C-5.93488868 29.43645516 -0.60762017 29.62978326 5.0625 30.1875 C10.3974916 31.81272923 14.09241606 34.41415081 17.0625 39.1875 C17.43375 39.76757812 17.805 40.34765625 18.1875 40.9453125 C22.07865048 48.0520665 22.32020408 56.3121567 21.0625 64.1875 C18.57676292 72.2071773 14.23810528 78.72295529 7.0625 83.1875 C-2.23571226 87.98703946 -11.71158876 88.80792196 -21.6875 85.625 C-30.52424684 81.95787739 -35.20289851 76.87252657 -38.9296875 68.12890625 C-41.28806784 61.24572642 -42.30154285 55.17779834 -42.25 47.9375 C-42.24436035 47.103396 -42.2387207 46.26929199 -42.23291016 45.40991211 C-41.98578898 32.76636084 -38.46972697 19.91991042 -29.8125 10.3125 C-21.12758578 2.38532997 -11.29986388 0.00811189 0 0 Z M-15.9375 50.0625 C-17.36249802 54.51561882 -17.61284571 58.55872604 -16.9375 63.1875 C-15.54058883 66.39618551 -15.54058883 66.39618551 -12.9375 68.1875 C-9.9375 69.02083333 -9.9375 69.02083333 -6.9375 68.1875 C-4.31462361 66.45685144 -4.31462361 66.45685144 -2.9375 63.1875 C-2.32448631 58.5313511 -1.88715997 54.08260892 -4.21484375 49.8828125 C-6.2526482 47.87735415 -7.11596062 47.61965618 -9.9375 47.625 C-12.94717848 47.80757241 -13.66911301 47.9358872 -15.9375 50.0625 Z "
     fill="#FBFBFB"
     transform="translate(513.9375,57.8125)"
     id="path4"
     style="fill:#ffffff;fill-opacity:1" />
  <path
     d="M0 0 C8.25 0 16.5 0 25 0 C25.04898438 2.52914062 25.09796875 5.05828125 25.1484375 7.6640625 C25.20252164 10.12652253 25.25979983 12.58888912 25.31738281 15.05126953 C25.35555219 16.75627619 25.39042566 18.46136006 25.421875 20.16650391 C25.46778836 22.62430326 25.52573769 25.08157652 25.5859375 27.5390625 C25.59748871 28.29555084 25.60903992 29.05203918 25.62094116 29.83145142 C25.74251699 34.2386831 26.38256414 37.8968206 28 42 C32.13739836 43.06683942 32.13739836 43.06683942 36.16723633 42.06884766 C39.01999359 38.84861787 38.58359057 35.30877189 38.57421875 31.2109375 C38.59546562 29.92239365 38.59546562 29.92239365 38.61714172 28.6078186 C38.65909678 25.86341843 38.67429521 23.11967603 38.6875 20.375 C38.71651123 17.6234884 38.75099702 14.87214566 38.78999329 12.12075806 C38.81256152 10.40808736 38.82833148 8.69531169 38.83683777 6.98251343 C38.89041773 1.10958227 38.89041773 1.10958227 40 0 C41.76859193 -0.09946453 43.54111451 -0.13080217 45.3125 -0.1328125 C46.38757813 -0.13410156 47.46265625 -0.13539062 48.5703125 -0.13671875 C49.70210937 -0.13285156 50.83390625 -0.12898438 52 -0.125 C53.13179687 -0.12886719 54.26359375 -0.13273437 55.4296875 -0.13671875 C56.50476563 -0.13542969 57.57984375 -0.13414063 58.6875 -0.1328125 C59.68136719 -0.13168457 60.67523438 -0.13055664 61.69921875 -0.12939453 C64 0 64 0 65 1 C65.09905152 2.83572631 65.12799207 4.67527575 65.12939453 6.51367188 C65.13254669 7.69159302 65.13569885 8.86951416 65.13894653 10.08312988 C65.13591019 12.00651184 65.13591019 12.00651184 65.1328125 13.96875 C65.13376923 15.27453003 65.13472595 16.58031006 65.13571167 17.92565918 C65.13718833 20.69312722 65.13503511 23.46056304 65.13037109 26.22802734 C65.12467381 29.78262649 65.12795298 33.33715014 65.13394356 36.89174652 C65.13841747 40.27158714 65.13528886 43.65140723 65.1328125 47.03125 C65.13483673 48.31350464 65.13686096 49.59575928 65.13894653 50.91687012 C65.13421829 52.68375183 65.13421829 52.68375183 65.12939453 54.48632812 C65.12859894 55.52921997 65.12780334 56.57211182 65.12698364 57.64660645 C65 60 65 60 64 61 C62.21928754 61.08726223 60.4351686 61.10699041 58.65234375 61.09765625 C57.57275391 61.09443359 56.49316406 61.09121094 55.38085938 61.08789062 C54.24455078 61.07951172 53.10824219 61.07113281 51.9375 61.0625 C50.79732422 61.05798828 49.65714844 61.05347656 48.48242188 61.04882812 C45.65489649 61.03699747 42.8274736 61.0205141 40 61 C39.34 58.69 38.68 56.38 38 54 C37.55269531 54.40992188 37.10539062 54.81984375 36.64453125 55.2421875 C36.03996094 55.78101563 35.43539062 56.31984375 34.8125 56.875 C34.22082031 57.40867188 33.62914062 57.94234375 33.01953125 58.4921875 C27.50048138 62.6127934 21.64087028 62.75337604 15 62 C9.72561674 60.37913471 5.82642287 57.81538711 3 53 C0.36237931 46.15746597 -0.41986778 39.90271846 -0.29296875 32.6171875 C-0.28872391 31.67690704 -0.28447906 30.73662659 -0.28010559 29.76785278 C-0.26348872 26.80326079 -0.22586997 23.83938194 -0.1875 20.875 C-0.17243115 18.84896824 -0.15874662 16.82292569 -0.14648438 14.796875 C-0.11620955 9.86409634 -0.05745751 4.93283394 0 0 Z "
     fill="#F8F8F8"
     transform="translate(163,83)"
     id="path5"
     style="fill:#ffffff;fill-opacity:1" />
  <path
     d="M0 0 C9.42774425 9.98231744 8.4298557 23.5453269 8.33081055 36.40576172 C8.31227959 38.90472369 8.31030326 41.40331948 8.31054688 43.90234375 C8.30564039 45.48958656 8.29981591 47.07682687 8.29296875 48.6640625 C8.29185593 49.41184967 8.2907431 50.15963684 8.28959656 50.93008423 C8.24114222 56.13385778 8.24114222 56.13385778 7.125 57.25 C5.50242456 57.3491657 3.87560169 57.38079777 2.25 57.3828125 C1.26515625 57.38410156 0.2803125 57.38539063 -0.734375 57.38671875 C-1.77078125 57.38285156 -2.8071875 57.37898438 -3.875 57.375 C-5.42960937 57.38080078 -5.42960937 57.38080078 -7.015625 57.38671875 C-8.00046875 57.38542969 -8.9853125 57.38414062 -10 57.3828125 C-10.91007812 57.38168457 -11.82015625 57.38055664 -12.7578125 57.37939453 C-14.875 57.25 -14.875 57.25 -15.875 56.25 C-15.91580783 54.25041636 -15.91754356 52.24954746 -15.875 50.25 C-16.52855469 50.86488281 -16.52855469 50.86488281 -17.1953125 51.4921875 C-23.19254433 56.91825439 -28.22503848 58.77454783 -36.34765625 58.5546875 C-41.32858472 57.95420462 -44.92019636 56.18577879 -48.48046875 52.66015625 C-52.27866342 47.62781429 -52.62015463 42.55252566 -52.35546875 36.37890625 C-51.39623451 30.1321857 -48.780812 26.68908253 -43.8125 22.9375 C-35.13421933 18.69228045 -25.38974748 17.73923347 -15.875 17.25 C-16.205 15.6 -16.535 13.95 -16.875 12.25 C-27.27323969 9.74140074 -37.12195984 12.60729825 -46.875 16.25 C-46.875 10.97 -46.875 5.69 -46.875 0.25 C-32.63147701 -5.854367 -13.92211339 -8.47432989 0 0 Z M-23.5 30.0625 C-24.27601562 30.23394531 -25.05203125 30.40539062 -25.8515625 30.58203125 C-28.07152184 31.14665234 -28.07152184 31.14665234 -29.875 33.25 C-30.37510524 36.20769177 -30.37510524 36.20769177 -29.875 39.25 C-28.35605194 41.34764165 -28.35605194 41.34764165 -25.875 42.25 C-22.35707931 42.17670999 -20.44416444 41.64995339 -17.5625 39.625 C-15.3777779 36.55020593 -15.16078509 33.96520613 -14.875 30.25 C-18.07323755 29.22043038 -20.24077313 29.30492051 -23.5 30.0625 Z "
     fill="#F9F9F9"
     transform="translate(144.875,86.75)"
     id="path6"
     style="fill:#ffffff;fill-opacity:1" />
  <path
     d="M0 0 C0 5.94 0 11.88 0 18 C1.959375 17.979375 3.91875 17.95875 5.9375 17.9375 C7.95832876 17.91622812 9.98035801 17.92755947 12 18 C13.82116003 19.82116003 13.1323508 22.30671764 13.13671875 24.7265625 C13.13285156 25.47679688 13.12898438 26.22703125 13.125 27 C13.13080078 28.12535156 13.13080078 28.12535156 13.13671875 29.2734375 C13.12661053 34.87338947 13.12661053 34.87338947 12 36 C9.98035801 36.07244053 7.95832876 36.08377188 5.9375 36.0625 C4.28041016 36.04896484 4.28041016 36.04896484 2.58984375 36.03515625 C1.73519531 36.02355469 0.88054687 36.01195312 0 36 C0.0807876 39.60509105 0.19363684 43.20847921 0.3125 46.8125 C0.34633789 48.34874023 0.34633789 48.34874023 0.38085938 49.91601562 C0.41630859 50.89892578 0.45175781 51.88183594 0.48828125 52.89453125 C0.51446533 53.80050049 0.54064941 54.70646973 0.56762695 55.63989258 C1.07519667 58.41046089 1.76360211 59.33355789 4 61 C6.28330101 61.36146457 6.28330101 61.36146457 8.6875 61.1875 C9.49574219 61.16042969 10.30398438 61.13335937 11.13671875 61.10546875 C12.05904297 61.05326172 12.05904297 61.05326172 13 61 C13.05382106 63.62527189 13.09358313 66.24944713 13.125 68.875 C13.14175781 69.62136719 13.15851563 70.36773437 13.17578125 71.13671875 C13.1933959 73.09194461 13.10320189 75.04742021 13 77 C8.85273888 81.14726112 2.29827384 80.30083515 -3.25512695 80.3190918 C-10.25071094 80.18664823 -15.24143792 78.54078087 -20.375 73.8125 C-25.13612966 65.57208328 -25.38971902 57.80698141 -25.1875 48.4375 C-25.17396484 47.23802734 -25.16042969 46.03855469 -25.14648438 44.80273438 C-25.111408 41.86801121 -25.06225427 38.93425118 -25 36 C-27.97 36 -30.94 36 -34 36 C-34 30.06 -34 24.12 -34 18 C-31.03 18 -28.06 18 -25 18 C-25 14.04 -25 10.08 -25 6 C-21.58512404 4.99351024 -18.16834168 3.99458959 -14.75 3 C-13.29787109 2.57074219 -13.29787109 2.57074219 -11.81640625 2.1328125 C-10.41455078 1.72675781 -10.41455078 1.72675781 -8.984375 1.3125 C-8.12553711 1.06113281 -7.26669922 0.80976562 -6.38183594 0.55078125 C-4 0 -4 0 0 0 Z "
     fill="#F9F9F9"
     transform="translate(307,65)"
     id="path7"
     style="fill:#ffffff;fill-opacity:1" />
  <path
     d="M0 0 C1.07507813 -0.00128906 2.15015625 -0.00257812 3.2578125 -0.00390625 C4.38960937 -0.00003906 5.52140625 0.00382812 6.6875 0.0078125 C7.81929687 0.00394531 8.95109375 0.00007813 10.1171875 -0.00390625 C11.19226563 -0.00261719 12.26734375 -0.00132813 13.375 0 C14.86580078 0.00169189 14.86580078 0.00169189 16.38671875 0.00341797 C18.6875 0.1328125 18.6875 0.1328125 19.6875 1.1328125 C19.78798523 3.86631998 19.82366261 6.57459142 19.81689453 9.30859375 C19.81864685 10.16544769 19.82039917 11.02230164 19.82220459 11.90512085 C19.82662417 14.7518717 19.82368475 17.59856097 19.8203125 20.4453125 C19.82098551 22.41446952 19.82195551 24.38362647 19.82321167 26.3527832 C19.82468879 30.48552235 19.82253364 34.61823992 19.81787109 38.75097656 C19.8121738 44.06105771 19.81545273 49.37108831 19.82144356 54.6811676 C19.8250488 58.74906803 19.82391076 62.81695639 19.82131577 66.88485718 C19.82064639 68.84337368 19.82147527 70.80189126 19.82379532 72.76040649 C19.82632124 75.4926445 19.82248211 78.22479947 19.81689453 80.95703125 C19.81891876 81.77472992 19.82094299 82.59242859 19.82302856 83.43490601 C19.80176246 89.01855004 19.80176246 89.01855004 18.6875 90.1328125 C16.90678754 90.22007473 15.1226686 90.23980291 13.33984375 90.23046875 C12.26025391 90.22724609 11.18066406 90.22402344 10.06835938 90.22070312 C8.93205078 90.21232422 7.79574219 90.20394531 6.625 90.1953125 C5.48482422 90.19080078 4.34464844 90.18628906 3.16992188 90.18164062 C0.34239649 90.16980997 -2.4850264 90.1533266 -5.3125 90.1328125 C-6.63910666 86.12817884 -6.45272281 82.05822817 -6.44189453 77.8918457 C-6.44364685 77.06381439 -6.44539917 76.23578308 -6.44720459 75.38265991 C-6.45160107 72.64961646 -6.44869367 69.91663784 -6.4453125 67.18359375 C-6.44598598 65.28598518 -6.44695637 63.3883767 -6.44821167 61.49076843 C-6.44968549 57.51719337 -6.44754348 53.54364081 -6.44287109 49.57006836 C-6.43716234 44.46521632 -6.44046205 39.36041673 -6.44644356 34.2555666 C-6.45004774 30.33950908 -6.44891145 26.42346412 -6.44631577 22.50740623 C-6.4456467 20.62424908 -6.4464742 18.7410908 -6.44879532 16.85793495 C-6.45132076 14.23379088 -6.44748334 11.60973329 -6.44189453 8.9855957 C-6.44391876 8.20066238 -6.44594299 7.41572906 -6.44802856 6.60700989 C-6.42311438 0.32685619 -6.19899606 0.00703518 0 0 Z "
     fill="#FAFAFA"
     transform="translate(245.3125,53.8671875)"
     id="path8"
     style="fill:#ffffff;fill-opacity:1" />
  <path
     d="M0 0 C4.88590492 4.21964516 7.82708611 7.84513612 8.75 14.375 C9.06434958 20.2937535 7.16236217 24.23210567 3.9375 29.125 C-0.05041989 33.22686046 -4.47261791 34.91479094 -10.16796875 35.4375 C-15.34166445 35.28219206 -19.16830018 33.28843541 -23.0625 30 C-27.02777252 25.24167297 -29.03942109 21.6923672 -29.25 15.375 C-27.87479181 8.76036226 -25.40400502 3.63941386 -19.8125 -0.375 C-13.28909946 -3.55714661 -6.45111056 -3.22555528 0 0 Z "
     fill="#FAFAFA"
     transform="translate(64.25,42.625)"
     id="path9"
     style="fill:#ffffff;fill-opacity:1" />
  <path
     d="M0 0 C1.81242052 -0.02687279 3.62495233 -0.04633715 5.4375 -0.0625 C6.44683594 -0.07410156 7.45617187 -0.08570313 8.49609375 -0.09765625 C11 0 11 0 12 1 C12.78757871 5.65073853 13.36823221 10.32491833 14 15 C15.32 10.05 16.64 5.1 18 0 C21.63 0 25.26 0 29 0 C30.61737483 4.62107093 31.85248597 9.2460133 33 14 C33.66 9.38 34.32 4.76 35 0 C38.63 0 42.26 0 46 0 C44.85964803 4.31396882 43.7118077 8.62590927 42.5625 12.9375 C42.23701172 14.16919922 41.91152344 15.40089844 41.57617188 16.66992188 C41.26357422 17.83974609 40.95097656 19.00957031 40.62890625 20.21484375 C40.1968689 21.84087524 40.1968689 21.84087524 39.75610352 23.49975586 C39 26 39 26 38 27 C33.99779347 27.14355117 30.00558317 27.04216403 26 27 C25.01 23.04 24.02 19.08 23 15 C22.71125 15.86625 22.4225 16.7325 22.125 17.625 C21.08333333 20.75 20.04166667 23.875 19 27 C15.04 27 11.08 27 7 27 C5.04595117 21.43096082 3.34953131 15.82287681 1.8125 10.125 C1.63364258 9.47072021 1.45478516 8.81644043 1.27050781 8.14233398 C0.52343737 5.33208216 0 2.92277471 0 0 Z "
     fill="#F6F6F6"
     transform="translate(137,171)"
     id="path10"
     style="fill:#ffffff;fill-opacity:1" />
  <path
     d="M0 0 C3.96 0 7.92 0 12 0 C12.33 7.59 12.66 15.18 13 23 C14.98 18.545 14.98 18.545 17 14 C21.29 14 25.58 14 30 14 C29.48566406 14.77601563 28.97132813 15.55203125 28.44140625 16.3515625 C24.80753665 22.28313448 24.80753665 22.28313448 24.40283203 28.98974609 C26.04801345 33.31431388 28.43598877 37.16548096 31 41 C26.71 41 22.42 41 18 41 C16.35 37.7 14.7 34.4 13 31 C12.67 34.3 12.34 37.6 12 41 C8.04 41 4.08 41 0 41 C0 27.47 0 13.94 0 0 Z "
     fill="#EDEDED"
     transform="translate(245,157)"
     id="path11"
     style="fill:#ffffff;fill-opacity:1" />
  <path
     d="M0 0 C3.0026733 3.19639416 3.91829753 5.91744233 4.25 10.3125 C3.88898229 15.6375112 2.41468242 18.69141877 -1.5 22.3125 C-6.39188573 25.61452287 -11.28247908 25.60050885 -17 25 C-21.43070499 23.69903796 -24.23370236 22.02971245 -27 18.3125 C-28.67673908 12.7583018 -28.74358218 8.11333883 -26.8125 2.625 C-24.43325143 -0.82080828 -22.04897434 -2.22280284 -18.1875 -3.6875 C-11.00160345 -4.71405665 -6.05274992 -4.08630352 0 0 Z M-16 6 C-16.07179964 7.51928038 -16.08392007 9.04167482 -16.0625 10.5625 C-16.05347656 11.38878906 -16.04445312 12.21507812 -16.03515625 13.06640625 C-16.02355469 13.70449219 -16.01195312 14.34257812 -16 15 C-13.525 15.99 -13.525 15.99 -11 17 C-9.35429841 15.94369738 -9.35429841 15.94369738 -8 14 C-7.61972727 9.34608843 -7.61972727 9.34608843 -9 5 C-12.80621045 4.56152641 -12.80621045 4.56152641 -16 6 Z "
     fill="#F6F6F6"
     transform="translate(213,174)"
     id="path12"
     style="fill:#ffffff;fill-opacity:1" />
  <path
     d="M0 0 C2.99658455 1.72169569 5.14597537 3.03094639 6.625 6.25 C8.12753472 12.33112476 7.87938556 16.71754455 4.625 22.25 C-0.21871273 26.8515271 -4.26230759 27.60694669 -10.734375 27.53125 C-15.91695726 26.97925899 -19.77323443 24.90182074 -23.375 21.1875 C-25.25203386 15.67371303 -25.25203386 9.82628697 -23.375 4.3125 C-16.9358413 -2.32788241 -8.36687007 -3.86163234 0 0 Z M-11.375 7.25 C-13.06692787 9.83765439 -13.37533706 11.23314689 -13.3125 14.375 C-12.668842 17.47250298 -12.668842 17.47250298 -9.8125 18.625 C-9.008125 18.83125 -8.20375 19.0375 -7.375 19.25 C-5.72929841 18.19369738 -5.72929841 18.19369738 -4.375 16.25 C-3.99472727 11.59608843 -3.99472727 11.59608843 -5.375 7.25 C-7.355 7.25 -9.335 7.25 -11.375 7.25 Z "
     fill="#F5F5F5"
     transform="translate(80.375,171.75)"
     id="path13"
     style="fill:#ffffff;fill-opacity:1" />
  <path
     d="M0 0 C0.90105469 0.00902344 1.80210938 0.01804688 2.73046875 0.02734375 C3.41753906 0.03894531 4.10460937 0.05054688 4.8125 0.0625 C4.8125 3.0325 4.8125 6.0025 4.8125 9.0625 C2.8325 9.0625 0.8525 9.0625 -1.1875 9.0625 C-1.1875 10.3825 -1.1875 11.7025 -1.1875 13.0625 C1.7825 13.5575 1.7825 13.5575 4.8125 14.0625 C4.85491723 16.39544775 4.85342937 18.72952567 4.8125 21.0625 C4.4825 21.3925 4.1525 21.7225 3.8125 22.0625 C1.8325 22.0625 -0.1475 22.0625 -2.1875 22.0625 C-2.1875 28.3325 -2.1875 34.6025 -2.1875 41.0625 C-5.8175 41.0625 -9.4475 41.0625 -13.1875 41.0625 C-13.1875 34.7925 -13.1875 28.5225 -13.1875 22.0625 C-14.8375 21.7325 -16.4875 21.4025 -18.1875 21.0625 C-18.1875 18.7525 -18.1875 16.4425 -18.1875 14.0625 C-16.5375 14.0625 -14.8875 14.0625 -13.1875 14.0625 C-13.290625 13.03125 -13.39375 12 -13.5 10.9375 C-13.08917957 5.84332662 -11.78768491 4.57895968 -8.1875 1.0625 C-5.17259443 0.05753148 -3.14568308 -0.04085303 0 0 Z "
     fill="#F8F8F8"
     transform="translate(108.1875,156.9375)"
     id="path14"
     style="fill:#ffffff;fill-opacity:1" />
  <path
     d="M0 0 C0 2.64 0 5.28 0 8 C1.98 8 3.96 8 6 8 C6.04241723 10.33294775 6.04092937 12.66702567 6 15 C5.67 15.33 5.34 15.66 5 16 C3.35 16 1.7 16 0 16 C0 19.63 0 23.26 0 27 C1.98 27 3.96 27 6 27 C6 29.64 6 32.28 6 35 C2.547912 36.726044 -1.21841567 36.35983934 -5 36 C-8.23806409 34.69099537 -9.54758422 33.89537339 -11.12109375 30.78125 C-12.12597734 27.60135172 -12.19812517 25.01469544 -12.125 21.6875 C-12.09792969 20.08455078 -12.09792969 20.08455078 -12.0703125 18.44921875 C-12.03550781 17.23685547 -12.03550781 17.23685547 -12 16 C-13.32 16 -14.64 16 -16 16 C-16 13.36 -16 10.72 -16 8 C-14.68 8 -13.36 8 -12 8 C-12 6.35 -12 4.7 -12 3 C-4.71428571 -0.42857143 -4.71428571 -0.42857143 0 0 Z "
     fill="#F3F3F3"
     transform="translate(130,163)"
     id="path15"
     style="fill:#ffffff;fill-opacity:1" />
  <path
     d="M0 0 C1.14662109 -0.00386719 1.14662109 -0.00386719 2.31640625 -0.0078125 C4.4375 0.125 4.4375 0.125 7.4375 1.125 C7.4375 3.435 7.4375 5.745 7.4375 8.125 C4.4675 8.125 1.4975 8.125 -1.5625 8.125 C-0.63992735 10.52974483 -0.63992735 10.52974483 2.8125 11.4375 C6.74122913 13.26639115 7.94406848 14.11140279 9.4375 18.125 C9.4375 21.1875 9.4375 21.1875 8.4375 24.125 C4.15935116 28.29056598 0.78626202 29.26572248 -5.0625 29.25 C-6.50109375 29.25386719 -6.50109375 29.25386719 -7.96875 29.2578125 C-10.5625 29.125 -10.5625 29.125 -13.5625 28.125 C-13.5625 25.485 -13.5625 22.845 -13.5625 20.125 C-9.9325 20.455 -6.3025 20.785 -2.5625 21.125 C-2.2325 20.465 -1.9025 19.805 -1.5625 19.125 C-2.17738281 18.95484375 -2.79226563 18.7846875 -3.42578125 18.609375 C-9.90467126 16.66674131 -9.90467126 16.66674131 -12.6875 14.375 C-14.02092815 10.94618476 -13.50306138 8.63642914 -12.5625 5.125 C-9.05078776 0.52344604 -5.55223115 -0.01878928 0 0 Z "
     fill="#F4F4F4"
     transform="translate(291.5625,169.875)"
     id="path16"
     style="fill:#ffffff;fill-opacity:1" />
  <path
     d="M0 0 C1.14662109 -0.00386719 1.14662109 -0.00386719 2.31640625 -0.0078125 C4.4375 0.125 4.4375 0.125 7.4375 1.125 C7.4375 3.435 7.4375 5.745 7.4375 8.125 C4.4675 8.125 1.4975 8.125 -1.5625 8.125 C-0.63992735 10.52974483 -0.63992735 10.52974483 2.8125 11.4375 C6.74122913 13.26639115 7.94406848 14.11140279 9.4375 18.125 C9.4375 21.1875 9.4375 21.1875 8.4375 24.125 C4.15935116 28.29056598 0.78626202 29.26572248 -5.0625 29.25 C-6.50109375 29.25386719 -6.50109375 29.25386719 -7.96875 29.2578125 C-10.5625 29.125 -10.5625 29.125 -13.5625 28.125 C-13.5625 25.485 -13.5625 22.845 -13.5625 20.125 C-9.9325 20.455 -6.3025 20.785 -2.5625 21.125 C-2.2325 20.465 -1.9025 19.805 -1.5625 19.125 C-2.17738281 18.95484375 -2.79226562 18.7846875 -3.42578125 18.609375 C-9.90467126 16.66674131 -9.90467126 16.66674131 -12.6875 14.375 C-14.02092815 10.94618476 -13.50306138 8.63642914 -12.5625 5.125 C-9.05078776 0.52344604 -5.55223115 -0.01878928 0 0 Z "
     fill="#F4F4F4"
     transform="translate(43.5625,169.875)"
     id="path17"
     style="fill:#ffffff;fill-opacity:1" />
  <path
     d="M0 0 C0 3.3 0 6.6 0 10 C-1.7015625 10.2165625 -1.7015625 10.2165625 -3.4375 10.4375 C-6.80777201 10.61171478 -6.80777201 10.61171478 -8 12 C-8.23678716 14.69235776 -8.42198025 17.36498156 -8.5625 20.0625 C-8.60568359 20.82111328 -8.64886719 21.57972656 -8.69335938 22.36132812 C-8.79973633 24.24065438 -8.90039934 26.12030244 -9 28 C-12.96 28 -16.92 28 -21 28 C-21 19.09 -21 10.18 -21 1 C-17.04 1 -13.08 1 -9 1 C-8.67 1.66 -8.34 2.32 -8 3 C-7.236875 2.505 -6.47375 2.01 -5.6875 1.5 C-3 0 -3 0 0 0 Z "
     fill="#F6F6F6"
     transform="translate(242,170)"
     id="path18"
     style="fill:#ffffff;fill-opacity:1" />
  <path
     d="M0 0 C3.3 0 6.6 0 10 0 C10 13.2 10 26.4 10 40 C6.7 40 3.4 40 0 40 C0 26.8 0 13.6 0 0 Z "
     fill="#FEFEFE"
     transform="translate(246,158)"
     id="path19"
     style="fill:#ffffff;fill-opacity:1" />
  <path
     d="M0 0 C2 2 2 2 2.3125 5 C2.1578125 6.485 2.1578125 6.485 2 8 C-1.46923881 10.31282587 -2.92205575 10.42478586 -7 10 C-8.875 8.8125 -8.875 8.8125 -10 7 C-10.4375 4.5 -10.4375 4.5 -10 2 C-6.89011997 -1.58832311 -4.37100102 -1.2352829 0 0 Z "
     fill="#F2F2F2"
     transform="translate(315,189)"
     id="path20"
     style="fill:#ffffff;fill-opacity:1" />
  <path
     d="M0 0 C0.66 0.33 1.32 0.66 2 1 C-2.29 5.29 -6.58 9.58 -11 14 C-11 10.30159372 -10.17133056 9.68584567 -7.75 7 C-7.14671875 6.319375 -6.5434375 5.63875 -5.921875 4.9375 C-4.06233388 3.06284066 -2.15205789 1.52358081 0 0 Z "
     fill="#E2E2E2"
     transform="translate(30,23)"
     id="path21"
     style="fill:#ffffff;fill-opacity:1" />
</svg>
